<svg xmlns="http://www.w3.org/2000/svg" xmlns:xlink="http://www.w3.org/1999/xlink" width="2000" zoomAndPan="magnify" viewBox="0 0 1500 1499.999933" height="2000" preserveAspectRatio="xMidYMid meet" version="1.0"><defs><g/></defs><g fill="#fffefb" fill-opacity="1"><g transform="translate(437.070082, 808.345252)"><g><path d="M 211.589844 7.660156 C 98.613281 7.660156 26.328125 -41.167969 26.328125 -166.113281 C 26.328125 -283.394531 98.613281 -337.011719 211.589844 -337.011719 C 324.566406 -337.011719 396.851562 -283.394531 396.851562 -166.113281 C 396.851562 -41.167969 324.566406 7.660156 211.589844 7.660156 Z M 211.589844 -332.703125 C 147.441406 -332.703125 135.476562 -281.480469 135.476562 -164.675781 C 135.476562 -40.210938 147.441406 3.351562 211.589844 3.351562 C 275.738281 3.351562 287.703125 -40.210938 287.703125 -164.675781 C 287.703125 -281.480469 275.738281 -332.703125 211.589844 -332.703125 Z M 211.589844 -332.703125 "/></g></g></g><g fill="#fffefb" fill-opacity="1"><g transform="translate(636.773416, 1018.34526)"><g><path d="M 403.550781 -60.796875 C 398.765625 -34.46875 388.234375 -19.148438 369.5625 -19.148438 C 351.375 -19.148438 341.800781 -33.988281 339.40625 -77.550781 C 335.097656 -155.582031 274.78125 -171.378906 227.386719 -174.25 C 334.140625 -177.121094 360.949219 -207.28125 360.949219 -253.714844 C 360.949219 -300.628906 331.265625 -329.351562 209.675781 -329.351562 L 15.320312 -329.351562 L 15.320312 -326 L 22.976562 -326 C 56.007812 -326 67.019531 -316.425781 67.019531 -271.429688 L 67.019531 -57.925781 C 67.019531 -12.925781 56.007812 -3.351562 22.976562 -3.351562 L 15.320312 -3.351562 L 15.320312 0 L 223.558594 0 L 223.558594 -3.351562 L 215.898438 -3.351562 C 182.867188 -3.351562 171.855469 -12.925781 171.855469 -57.925781 L 171.855469 -174.25 L 189.089844 -174.25 C 213.503906 -174.25 229.78125 -164.199219 231.21875 -97.179688 C 234.089844 -8.136719 271.90625 7.660156 319.300781 7.660156 C 369.085938 7.660156 396.851562 -9.574219 406.902344 -59.359375 Z M 253.714844 -253.714844 C 253.714844 -201.058594 235.523438 -177.601562 180.953125 -177.601562 L 171.855469 -177.601562 L 171.855469 -326 L 176.644531 -326 C 229.78125 -326 253.714844 -303.980469 253.714844 -253.714844 Z M 253.714844 -253.714844 "/></g></g></g></svg>