<svg xmlns="http://www.w3.org/2000/svg" xmlns:xlink="http://www.w3.org/1999/xlink" width="2000" zoomAndPan="magnify" viewBox="0 0 1500 1499.999933" height="2000" preserveAspectRatio="xMidYMid meet" version="1.0"><defs><g/><clipPath id="ceb099cdd1"><rect x="0" width="425" y="0" height="565"/></clipPath><clipPath id="3b7f4f6f02"><rect x="0" width="497" y="0" height="565"/></clipPath></defs><g transform="matrix(1, 0, 0, 1, 436, 361)"><g clip-path="url(#ceb099cdd1)"><g fill="#fff6e5" fill-opacity="1"><g transform="translate(4.14623, 459.928181)"><g><path d="M 138.828125 -371 C 159.890625 -379.613281 181.109375 -384.316406 202.484375 -385.109375 C 223.867188 -385.910156 244.375 -383.519531 264 -377.9375 C 283.625 -372.351562 301.894531 -363.816406 318.8125 -352.328125 C 335.726562 -340.835938 350.488281 -327.035156 363.09375 -310.921875 C 375.695312 -294.804688 385.585938 -276.773438 392.765625 -256.828125 C 399.953125 -236.878906 403.546875 -215.578125 403.546875 -192.921875 C 403.546875 -170.253906 399.953125 -148.867188 392.765625 -128.765625 C 385.585938 -108.660156 375.695312 -90.550781 363.09375 -74.4375 C 350.488281 -58.320312 335.648438 -44.519531 318.578125 -33.03125 C 301.503906 -21.539062 283.148438 -13.003906 263.515625 -7.421875 C 243.890625 -1.835938 223.46875 0.554688 202.25 -0.234375 C 181.03125 -1.035156 159.890625 -5.742188 138.828125 -14.359375 C 117.765625 -22.972656 99.253906 -34.460938 83.296875 -48.828125 C 67.335938 -63.191406 54.332031 -79.304688 44.28125 -97.171875 C 34.226562 -115.046875 27.125 -134.113281 22.96875 -154.375 C 18.820312 -174.644531 17.945312 -194.988281 20.34375 -215.40625 C 22.738281 -235.832031 28.40625 -255.78125 37.34375 -275.25 C 46.28125 -294.71875 58.882812 -312.59375 75.15625 -328.875 C 84.40625 -338.125 94.296875 -346.257812 104.828125 -353.28125 C 115.367188 -360.300781 126.703125 -366.207031 138.828125 -371 Z M 387.265625 -125.90625 C 394.609375 -147.914062 396.601562 -170.25 393.25 -192.90625 C 389.90625 -215.570312 382.726562 -237.195312 371.71875 -257.78125 C 360.707031 -278.363281 346.503906 -297.03125 329.109375 -313.78125 C 311.710938 -330.539062 292.640625 -344.1875 271.890625 -354.71875 C 251.148438 -365.25 229.367188 -371.867188 206.546875 -374.578125 C 183.734375 -377.296875 161.316406 -374.664062 139.296875 -366.6875 C 116.328125 -357.113281 95.984375 -343.46875 78.265625 -325.75 C 60.554688 -308.039062 46.914062 -287.695312 37.34375 -264.71875 C 29.363281 -242.695312 26.726562 -220.273438 29.4375 -197.453125 C 32.15625 -174.640625 38.78125 -152.859375 49.3125 -132.109375 C 59.84375 -111.367188 73.5625 -92.300781 90.46875 -74.90625 C 107.382812 -57.519531 126.054688 -43.320312 146.484375 -32.3125 C 166.910156 -21.300781 188.53125 -14.117188 211.34375 -10.765625 C 234.164062 -7.421875 256.585938 -9.414062 278.609375 -16.75 C 303.492188 -26.320312 325.429688 -40.523438 344.421875 -59.359375 C 363.410156 -78.191406 377.691406 -100.375 387.265625 -125.90625 Z M 387.265625 -125.90625 "/></g></g></g></g></g><g transform="matrix(1, 0, 0, 1, 591, 571)"><g clip-path="url(#3b7f4f6f02)"><g fill="#fff6e5" fill-opacity="1"><g transform="translate(1.720309, 459.928163)"><g><path d="M 165.15625 -48.828125 C 161 -38.929688 155.25 -30.472656 147.90625 -23.453125 C 140.570312 -16.429688 132.359375 -11.003906 123.265625 -7.171875 C 114.171875 -3.347656 104.515625 -1.351562 94.296875 -1.1875 C 84.085938 -1.03125 74.035156 -3.03125 64.140625 -7.1875 C 54.253906 -11.332031 45.71875 -17.070312 38.53125 -24.40625 C 31.351562 -31.75 25.925781 -40.046875 22.25 -49.296875 C 18.582031 -58.554688 16.75 -68.289062 16.75 -78.5 C 16.75 -88.71875 18.828125 -98.773438 22.984375 -108.671875 L 131.640625 -366.6875 C 130.046875 -369.875 127.734375 -372.742188 124.703125 -375.296875 C 121.671875 -377.847656 116.164062 -379.125 108.1875 -379.125 L 108.1875 -382.96875 L 167.0625 -382.96875 L 167.0625 -379.125 C 159.082031 -379.125 154.375 -377.847656 152.9375 -375.296875 C 151.507812 -372.742188 151.59375 -368.914062 153.1875 -363.8125 L 221.15625 -193.390625 L 293.921875 -365.25 C 292.960938 -367.800781 291.046875 -370.75 288.171875 -374.09375 C 285.304688 -377.445312 279.242188 -379.125 269.984375 -379.125 L 269.984375 -382.96875 L 328.875 -382.96875 L 328.875 -379.125 C 320.894531 -379.125 316.1875 -377.847656 314.75 -375.296875 C 313.3125 -372.742188 313.390625 -368.914062 314.984375 -363.8125 L 451.890625 -22.015625 C 452.847656 -20.097656 453.644531 -18.101562 454.28125 -16.03125 C 454.925781 -13.957031 456.046875 -12.039062 457.640625 -10.28125 C 459.234375 -8.53125 461.546875 -7.097656 464.578125 -5.984375 C 467.609375 -4.867188 471.835938 -4.3125 477.265625 -4.3125 L 477.265625 0 L 418.859375 0 L 418.859375 -4.3125 C 426.835938 -4.3125 431.460938 -5.585938 432.734375 -8.140625 C 434.015625 -10.691406 433.859375 -14.519531 432.265625 -19.625 L 296.3125 -359.5 L 223.546875 -187.65625 L 290.09375 -22.015625 C 291.050781 -20.097656 291.847656 -18.101562 292.484375 -16.03125 C 293.117188 -13.957031 294.234375 -12.039062 295.828125 -10.28125 C 297.429688 -8.53125 299.75 -7.097656 302.78125 -5.984375 C 305.8125 -4.867188 310.039062 -4.3125 315.46875 -4.3125 L 315.46875 0 L 257.0625 0 L 257.0625 -4.3125 C 265.039062 -4.3125 269.664062 -5.585938 270.9375 -8.140625 C 272.21875 -10.691406 272.0625 -14.519531 270.46875 -19.625 L 213.015625 -162.765625 Z M 29.203125 -112.5 C 25.367188 -103.238281 23.609375 -94.300781 23.921875 -85.6875 C 24.242188 -77.070312 26.398438 -68.929688 30.390625 -61.265625 C 34.378906 -53.609375 39.882812 -46.75 46.90625 -40.6875 C 53.925781 -34.625 62.066406 -29.675781 71.328125 -25.84375 C 80.578125 -22.019531 89.910156 -19.707031 99.328125 -18.90625 C 108.742188 -18.113281 117.519531 -18.910156 125.65625 -21.296875 C 133.789062 -23.691406 141.207031 -27.757812 147.90625 -33.5 C 154.613281 -39.25 159.882812 -46.753906 163.71875 -56.015625 L 210.625 -168.5 C 196.269531 -204.5625 184.460938 -234.238281 175.203125 -257.53125 C 165.953125 -280.832031 158.453125 -299.503906 152.703125 -313.546875 C 146.960938 -327.585938 142.816406 -337.878906 140.265625 -344.421875 C 137.710938 -350.960938 135.957031 -355.347656 135 -357.578125 C 134.039062 -359.816406 133.640625 -360.773438 133.796875 -360.453125 C 133.953125 -360.140625 133.875 -360.300781 133.5625 -360.9375 Z M 29.203125 -112.5 "/></g></g></g></g></g></svg>