<?xml version="1.0" encoding="UTF-8"?>
<svg version="1.1" xmlns="http://www.w3.org/2000/svg" width="233" height="216">
<path d="M0 0 C76.89 0 153.78 0 233 0 C233 71.28 233 142.56 233 216 C156.11 216 79.22 216 0 216 C0 144.72 0 73.44 0 0 Z " fill="#FF9D0C" transform="translate(0,0)"/>
<path d="M0 0 C1.25683594 1.01320313 1.25683594 1.01320313 2.5390625 2.046875 C20.47386372 17.2609169 31.7817919 39.59790459 34 63 C34.54255406 72.85316933 34.08796274 82.3245298 32 92 C27.25 90.125 27.25 90.125 25 89 C18.02675794 88.30267579 13.34145155 90.40531225 7.9375 94.6015625 C6.25494371 96.03309225 4.61146798 97.48924877 3 99 C1.824375 98.0409375 1.824375 98.0409375 0.625 97.0625 C-2.77402952 94.39183395 -4.49757149 93.8099184 -8.75 93.6875 C-9.59046875 93.65011719 -10.4309375 93.61273438 -11.296875 93.57421875 C-15.09919538 94.17313916 -17.05627276 95.52521994 -20 98 C-21.61295389 100.3960547 -22.76920842 102.92649767 -23.9375 105.5625 C-24.62069825 107.00595016 -25.30823004 108.4473569 -26 109.88671875 C-26.33644531 110.58974121 -26.67289062 111.29276367 -27.01953125 112.01708984 C-30.36148767 118.77589712 -34.44925953 124.54194642 -39.625 130 C-45.08429334 135.88857111 -49.18317103 142.46419674 -49.4375 150.6875 C-49.18361963 154.94961296 -48.19000303 158.90936459 -47 163 C-51.65537356 163.92092281 -56.14685433 164.12205997 -60.875 164.0625 C-61.56335938 164.05798828 -62.25171875 164.05347656 -62.9609375 164.04882812 C-64.64066335 164.03716336 -66.32034375 164.01923271 -68 164 C-67.84273438 162.97519531 -67.68546875 161.95039063 -67.5234375 160.89453125 C-66.17429813 150.85653165 -65.93859744 142.48867562 -72 134 C-74.41970045 131.26901733 -76.9238502 128.63285031 -79.4375 125.98828125 C-85.16619944 119.3077095 -88.93633566 111.28506394 -92.6875 103.375 C-94.89677613 98.82956364 -97.45204898 96.27397551 -102 94 C-107.35043756 93.3153005 -111.64869521 93.25948487 -116.125 96.5 C-117.07375 97.325 -118.0225 98.15 -119 99 C-119.59167969 98.44570312 -120.18335937 97.89140625 -120.79296875 97.3203125 C-121.58316406 96.59585938 -122.37335938 95.87140625 -123.1875 95.125 C-123.96480469 94.40570313 -124.74210937 93.68640625 -125.54296875 92.9453125 C-130.15528295 89.29359156 -134.16399024 88.40650748 -140 89 C-142.79383605 90.12733735 -145.39774141 91.48595864 -148 93 C-150.30100413 86.59919089 -150.29839732 80.56795935 -150.25 73.8125 C-150.25773437 72.75224609 -150.26546875 71.69199219 -150.2734375 70.59960938 C-150.21170567 45.27412503 -140.76944625 23.74215063 -123 6 C-122.41863281 5.34773438 -121.83726563 4.69546875 -121.23828125 4.0234375 C-106.98267506 -11.70441014 -83.80522266 -19.4756866 -63.19384766 -20.89794922 C-40.08479031 -21.97290871 -17.87569283 -14.77423193 0 0 Z " fill="#FED11E" transform="translate(174,31)"/>
<path d="M0 0 C36.96 0 73.92 0 112 0 C112 71.28 112 142.56 112 216 C35.11 216 -41.78 216 -121 216 C-121 201.48 -121 186.96 -121 172 C-120.01 173.32 -119.02 174.64 -118 176 C-118.33 176.99 -118.66 177.98 -119 179 C-119.5042142 183.80243358 -119.53261396 187.7958293 -117.5625 192.25 C-111.35110706 198.9158851 -103.31797089 202.57563368 -95 206 C-94.12472656 206.3609375 -93.24945313 206.721875 -92.34765625 207.09375 C-74.67036596 213.94662024 -50.99557293 218.11002181 -32.66796875 211.4609375 C-30.0562847 210.18991479 -30.0562847 210.18991479 -28.52050781 208.53686523 C-22.21709011 202.59805699 -14.92883077 203.12100934 -6.77246094 203.27270508 C-4.37254902 203.31254068 -1.97813399 203.29333456 0.421875 203.26757812 C1.96095874 203.27513512 3.50003036 203.28608647 5.0390625 203.30078125 C5.74858063 203.29379715 6.45809875 203.28681305 7.18911743 203.27961731 C12.86525323 203.43942311 15.07819963 205.22728028 19 209 C21.11441565 210.32828449 21.11441565 210.32828449 23.125 211.25 C23.76695312 211.56453125 24.40890625 211.8790625 25.0703125 212.203125 C44.84431444 220.36890718 72.27568938 211.36264515 91 204 C97.72933627 200.92331538 104.59058004 197.57258822 108.8125 191.3125 C110.51995142 186.54960918 110.74441636 181.76641215 109.421875 176.8515625 C109 175 109 175 110 173 C110.14792873 171.23338962 110.2212169 169.46005936 110.25 167.6875 C110.27578125 166.74261719 110.3015625 165.79773438 110.328125 164.82421875 C110.1968552 161.92807054 110.1968552 161.92807054 108.48046875 159.578125 C106.53698761 156.19369875 106.83182269 153.92529638 107.0625 150.0625 C107.31624534 144.37545199 107.31624534 144.37545199 105.25 139.25 C101.08496156 135.08496156 97.78265351 134.78579612 92 134 C92.20496094 132.98679688 92.40992188 131.97359375 92.62109375 130.9296875 C92.89328131 129.5781355 93.16541379 128.22657241 93.4375 126.875 C93.57220703 126.20984375 93.70691406 125.5446875 93.84570312 124.859375 C94.237944 122.9077375 94.61909189 120.95388097 95 119 C95.19335938 118.03449219 95.38671875 117.06898437 95.5859375 116.07421875 C97.14226011 104.51925751 96.34908218 92.36895543 94 81 C93.76023438 79.61748047 93.76023438 79.61748047 93.515625 78.20703125 C88.87689524 55.48352397 73.74628712 33.88439916 55.1875 20.25 C38.1045585 8.99891615 20.56139851 2.40301307 0 1 C0 0.67 0 0.34 0 0 Z " fill="#FFFDFC" transform="translate(121,0)"/>
<path d="M0 0 C35.64 0 71.28 0 108 0 C108 0.33 108 0.66 108 1 C107.12601562 1.07476562 106.25203125 1.14953125 105.3515625 1.2265625 C85.39377226 3.36041429 66.26157224 10.75625202 51 24 C50.21496094 24.64195313 49.42992187 25.28390625 48.62109375 25.9453125 C37.01319501 35.79113585 28.97855631 47.46492739 22.77978516 61.26953125 C22.13403657 62.70255128 21.45241846 64.11934648 20.76171875 65.53125 C11.65763681 85.49695865 12.54425921 108.08341372 17 129 C17.33459491 130.66641386 17.66852354 132.33296303 18 134 C17.39671875 134.15855469 16.7934375 134.31710938 16.171875 134.48046875 C12.41181309 135.57816424 9.54702327 136.5487058 6.5 139.0625 C3.97035195 144.01639409 3.44407464 149.44274333 4.625 154.875 C5 157 5 157 3.6875 159.0625 C3.130625 159.701875 2.57375 160.34125 2 161 C1.01 162.98 1.01 162.98 0 165 C0 110.55 0 56.1 0 0 Z " fill="#FFFEFD" transform="translate(0,0)"/>
<path d="M0 0 C6.10163014 1.03354143 9.53419819 6.50289123 13 11.1875 C16.22073877 16.05822835 19.11286137 21.11471626 22 26.1875 C22.58007812 27.11949219 23.16015625 28.05148438 23.7578125 29.01171875 C25 31.1875 25 31.1875 25 33.1875 C27.31 33.5175 29.62 33.8475 32 34.1875 C32.95020416 31.947665 32.95020416 31.947665 33 29.1875 C30.79245093 26.64567955 30.79245093 26.64567955 28 24.1875 C24.13147388 19.69164532 23.36560661 16.24474356 23.609375 10.47265625 C24 8.1875 24 8.1875 25.75 5.5 C28 4.1875 28 4.1875 30 4.125 C34.23114545 6.37279602 36.05568275 10.12742047 37.875 14.375 C41.67170294 23.20488002 46.74458941 30.42286919 53.12915039 37.54589844 C57.50410925 42.49331792 60.7112013 47.14414874 60.41015625 53.9765625 C59.15353677 60.7503399 55.48044321 66.87014053 49.9765625 71.00390625 C38.24509411 78.02887645 21.76064309 76.21735697 8.9921875 73.29296875 C-18.53564518 65.94330469 -18.53564518 65.94330469 -26 58.1875 C-26.89453125 55.09765625 -26.89453125 55.09765625 -27 52.1875 C-26.34 51.5275 -25.68 50.8675 -25 50.1875 C-18.6686433 50.37686437 -13.65941033 52.97069776 -8.0625 55.75 C-7.18787109 56.17474609 -6.31324219 56.59949219 -5.41210938 57.03710938 C-3.27038507 58.078713 -1.13338147 59.1289422 1 60.1875 C-0.45263536 56.00170713 -1.6670252 54.3098177 -5.671875 52.21484375 C-8.59064937 50.9268611 -11.56713103 49.84761808 -14.5625 48.75 C-19.64822575 46.83626891 -23.35150678 45.24138136 -27 41.1875 C-28 38.5 -28 38.5 -28 36.1875 C-26 34.1875 -26 34.1875 -24.1796875 33.89453125 C-14.01289219 34.35979137 -5.54540582 40.63533795 2.79296875 45.9765625 C5.01878499 47.4280125 5.01878499 47.4280125 8 47.1875 C6.62929648 42.26658922 4.4139979 40.80646194 0.0625 38.3125 C-1.11501309 37.62182591 -2.29208914 36.93040623 -3.46875 36.23828125 C-4.06042969 35.89619629 -4.65210937 35.55411133 -5.26171875 35.20166016 C-22.98032471 24.86414763 -22.98032471 24.86414763 -25 19.5625 C-25 17.1875 -25 17.1875 -23 14.1875 C-14.84263183 13.0944817 -8.21878695 18.74595295 -2.0234375 23.4453125 C1.41324812 26.23821129 4.78361996 29.08608972 8.06640625 32.05859375 C11.29484846 34.9662836 13.45587305 36.91209837 18 37.1875 C16.01842869 32.7577293 13.91097786 29.80585866 10.375 26.5 C-4.53839274 11.8936477 -4.53839274 11.8936477 -4.625 5.0625 C-3.84725051 0.24045316 -3.84725051 0.24045316 0 0 Z " fill="#FFD11E" transform="translate(38,129.8125)"/>
<path d="M0 0 C1.60745059 3.21490118 1.40305242 5.4301071 1 9 C-2.04207235 14.90959956 -7.31809589 19.39165897 -12.01611328 23.9831543 C-15.51914678 27.43234151 -18.42079785 30.81991375 -21 35 C-21 35.66 -21 36.32 -21 37 C-16.18795175 35.71492471 -13.56874605 34.00070696 -10.0625 30.5 C6.97632963 14.3764794 6.97632963 14.3764794 16 13.8125 C19 14 19 14 21 16 C21.4375 18.3125 21.4375 18.3125 21 21 C17.57701074 24.87854421 13.74509707 27.67543118 9.375 30.375 C8.76688477 30.75857666 8.15876953 31.14215332 7.53222656 31.53735352 C5.69173597 32.69740136 3.84628015 33.84919531 2 35 C-0.0849622 36.30991093 -2.16847682 37.62213113 -4.25 38.9375 C-5.12140625 39.48277344 -5.9928125 40.02804688 -6.890625 40.58984375 C-9.09287071 41.96296412 -9.09287071 41.96296412 -11 44 C-11 44.99 -11 45.98 -11 47 C-5.82388688 45.50720249 -1.49835024 43.18480264 3.125 40.5 C4.52298167 39.69712245 5.92140555 38.89501428 7.3203125 38.09375 C7.93148926 37.73990234 8.54266602 37.38605469 9.17236328 37.02148438 C14.24541823 34.18610341 17.17256016 33.7134046 23 34 C24 35 24 35 24.375 37.8125 C24 41 24 41 21.875 43.0078125 C18.87999558 45.08315524 15.95154742 46.58096166 12.625 48.0625 C11.48546875 48.57425781 10.3459375 49.08601563 9.171875 49.61328125 C6.74539004 50.67412135 4.31572375 51.72260133 1.875 52.75 C-1.11634645 53.9497752 -1.11634645 53.9497752 -4 56 C-4 56.99 -4 57.98 -4 59 C2.5105907 57.04682279 8.22953623 54.45457753 14.203125 51.20703125 C17.11196592 49.95167951 18.87492926 49.58511992 22 50 C24 52 24 52 24 54.3125 C22.20533629 59.13565872 17.94424038 61.49064976 13.58203125 63.84375 C12.33206519 64.41049446 11.07511306 64.96201981 9.8125 65.5 C9.13123047 65.79406738 8.44996094 66.08813477 7.74804688 66.39111328 C-9.15847522 73.39992621 -32.18764112 79.5011352 -50 73 C-55.85342574 70.13067366 -58.86602816 65.54314889 -62 60 C-63.698119 54.90564299 -64.2020152 49.65685279 -61.94140625 44.66015625 C-59.38401547 40.71664581 -56.40828592 37.34546586 -53.1875 33.9375 C-47.0609969 27.25831812 -42.8156173 18.91350686 -38.93579102 10.76489258 C-38.42036743 9.68244263 -38.42036743 9.68244263 -37.89453125 8.578125 C-37.59135986 7.92102539 -37.28818848 7.26392578 -36.97583008 6.58691406 C-36 5 -36 5 -33.4375 3.8125 C-31 4 -31 4 -29.40234375 5.2421875 C-26.87607948 8.40881402 -26.90489999 12.06014245 -27 16 C-28.63930985 21.02038642 -31.99097524 24.40667587 -35.57421875 28.16796875 C-37.30708679 30.00767498 -37.30708679 30.00767498 -37 33 C-34.760165 33.95020416 -34.760165 33.95020416 -32 34 C-28.02372813 30.61539738 -25.68743906 27.01551055 -23.25 22.4375 C-10.53508047 -0.71830094 -10.53508047 -0.71830094 0 0 Z " fill="#FFD11E" transform="translate(198,130)"/>
<path d="M0 0 C5.1069976 0.43136028 9.05776333 2.24989081 13.5625 4.5 C24.03771699 9.70105489 34.91270783 10.94982013 46.25 7.3125 C50.97601864 5.5583836 55.3819833 3.37350879 59.74609375 0.85546875 C62.54299753 -0.20609438 64.16738702 0.18568621 67 1 C67.85624911 10.6661011 65.88554963 18.58858002 60.1796875 26.53515625 C58.52878712 28.49344184 56.94542843 30.33389001 55 32 C54.34 32 53.68 32 53 32 C51.73828125 30.57421875 51.73828125 30.57421875 50.3125 28.6875 C47.23096557 24.92878887 44.56380968 23.55169529 40 22 C39.236875 22.99 38.47375 23.98 37.6875 25 C36.38671875 26.6875 36.38671875 26.6875 35 28 C34.01 28 33.02 28 32 28 C29.8125 25 29.8125 25 28 22 C21.07421679 23.8138956 16.91866062 28.03911912 12 33 C4.16487037 25.30096444 -1.22872818 17.09005733 -1.375 5.8125 C-1.20356612 1.20356612 -1.20356612 1.20356612 0 0 Z " fill="#3B3B44" transform="translate(82,102)"/>
<path d="M0 0 C2.40108536 1.84083211 2.97681918 3.59326074 3.875 6.4375 C7.69184226 4.88249019 10.06695732 2.40154505 12.875 -0.5625 C18.5376826 2.2688413 22.03119099 5.42506041 25.875 10.4375 C18.3133064 17.29028482 10.60567621 18.11155032 0.8125 17.8046875 C-4.38623625 17.31988471 -8.54784905 15.88323087 -13.125 13.4375 C-13.785 13.1075 -14.445 12.7775 -15.125 12.4375 C-13.74113025 7.20954763 -10.36538711 4.48807385 -6.125 1.4375 C-2.49677818 -0.66091187 -2.49677818 -0.66091187 0 0 Z " fill="#FC323C" transform="translate(110.125,123.5625)"/>
<path d="M0 0 C3.01177693 1.77713546 5.4108136 3.8216272 7 7 C7.50290476 12.11973533 7.7910106 16.53516555 5.3125 21.125 C2.7943912 23.16670984 1.20280069 23.73309994 -2 24 C-2.433125 23.175 -2.86625 22.35 -3.3125 21.5 C-6.5250923 18.51154205 -7.4999469 18.66015088 -11.75 18.6875 C-13.50126074 18.76772791 -15.25215533 18.86439136 -17 19 C-18.92387208 15.41390244 -19.49410657 13.11755472 -19 9 C-14.17516567 0.51494652 -9.64674003 -2.44866144 0 0 Z " fill="#3B3B44" transform="translate(153,60)"/>
<path d="M0 0 C3.01299308 1.77417981 5.4111938 3.82238761 7 7 C7.0955931 8.66444461 7.12984645 10.33281963 7.125 12 C7.12886719 13.3303125 7.12886719 13.3303125 7.1328125 14.6875 C7 17 7 17 6 19 C5.25234375 18.94199219 4.5046875 18.88398437 3.734375 18.82421875 C0.75226371 18.6876037 -2.03480226 18.63734992 -5 19 C-7.74770272 21.2788824 -7.74770272 21.2788824 -9 24 C-12.31889905 23.72342508 -13.76400263 23.21633092 -16.25 20.9375 C-18.44192434 17.25819843 -19.20999105 14.27541784 -19 10 C-15.77204065 0.67478411 -9.06695158 -2.26673789 0 0 Z " fill="#3A3B44" transform="translate(87,60)"/>
<path d="M0 0 C3.63525215 2.60789828 4.83397068 4.0702358 5.625 8.5 C4.82883761 12.95850936 3.69186542 14.40783917 0 17 C-3.5 17.6875 -3.5 17.6875 -7 17 C-10 14.4375 -10 14.4375 -12 11 C-12.14971147 6.65836732 -11.72194213 4.80444981 -8.8125 1.5625 C-5.43724821 -0.31263988 -3.7992366 -0.71235686 0 0 Z " fill="#FF9D0B" transform="translate(58,73)"/>
<path d="M0 0 C1.8046875 0.6015625 1.8046875 0.6015625 3.8046875 2.2265625 C5.23816962 5.63108253 5.31830419 7.94204357 4.8046875 11.6015625 C2.21838946 15.28507789 0.73493624 16.41883507 -3.6953125 17.2890625 C-7.1953125 16.6015625 -7.1953125 16.6015625 -10.1953125 14.0390625 C-12.1953125 10.6015625 -12.1953125 10.6015625 -12.3203125 6.9765625 C-10.15392327 0.4773948 -6.44585295 -1.24052264 0 0 Z " fill="#FF9D0B" transform="translate(181.1953125,73.3984375)"/>
<path d="M0 0 C0.33 0 0.66 0 1 0 C1 8.25 1 16.5 1 25 C0.34 25.33 -0.32 25.66 -1 26 C-0.98839844 25.18015625 -0.97679687 24.3603125 -0.96484375 23.515625 C-0.95130859 21.89914063 -0.95130859 21.89914063 -0.9375 20.25 C-0.92589844 19.18265625 -0.91429687 18.1153125 -0.90234375 17.015625 C-0.8792191 14.12903036 -0.8792191 14.12903036 -1.5625 11.9375 C-2.15331883 9.32101661 -1.64480697 7.35325469 -1.0625 4.75 C-0.86785156 3.85796875 -0.67320312 2.9659375 -0.47265625 2.046875 C-0.31667969 1.37140625 -0.16070312 0.6959375 0 0 Z " fill="#FFEEDC" transform="translate(232,165)"/>
<path d="M0 0 C3 4 3 4 2.85546875 6.796875 C2.63503906 7.77140625 2.41460937 8.7459375 2.1875 9.75 C1.97480469 10.73484375 1.76210938 11.7196875 1.54296875 12.734375 C1.36378906 13.48203125 1.18460937 14.2296875 1 15 C0.67 15 0.34 15 0 15 C0 10.05 0 5.1 0 0 Z " fill="#FFEBD5" transform="translate(0,172)"/>
</svg>
